<svg viewBox="16.8 100.4 179.5 84.4" xmlns="http://www.w3.org/2000/svg">
     <defs>
      <clipPath id="a">
        <path fill="none" d="M0 0h210.396v300.002H0z"/>
      </clipPath>
    </defs>
    <g clip-path="url(#a)" fill="none" stroke-miterlimit="10" font-family="none" font-weight="none" font-size="none" text-anchor="none" style="mix-blend-mode:normal">
      <path d="M86.19 134.833c4.652-.075 6.94 1.221 10.714 4.732.045-.61-.083-3.952.34-3.973 1.732-.088 7.678-.648 9.04-.015l.163.24c.08 9.142.045 25.091.007 33.568-2.28.314-6.853.113-9.364.12-.159-1.484-.178-2.895-.22-4.389-.713.674-1.486 1.443-2.237 2.006-5.531 4.96-15.928 3.331-20.66-3.011-1.979-2.652-3.867-7.043-3.857-11.022.032-12.868 8.16-18.057 16.074-18.256m3.604 26.708c2.229-.348 4.516-1.616 5.95-4.176.981-1.716 1.43-3.928 1.246-6.125-.4-4.731-3.992-7.634-7.028-8.147-.994-.168-2.06-.138-3.057-.04-1.436.256-2.336.534-3.63 1.523-4.012 3.069-4.981 10.291-1.031 14.464 2.684 2.835 4.275 2.643 7.55 2.501m80.736-26.036c.625 1.488 1.484 4.031 2.073 5.64q1.764 4.758 3.485 9.548c.357 1.004 2.079 6.312 2.601 6.502.785-.623 6.858-19.777 8.124-21.453.371-.49 8.549-.53 9.437-.217l.09.318c-.098.916-8.701 21.743-9.788 24.333-3.45 7.811-6.709 16.832-10.314 24.487-1.145.188-3.061.123-4.244.12-1.835-.006-3.762.027-5.587-.059.65-1.627 1.493-3.379 2.202-4.995l4.903-11.178c-1.013-3.525-3.745-8.534-4.734-11.76-.749-2.441-8.38-20.174-8.327-21.164.317-.23.692-.193 1.057-.21q4.511-.105 9.021.088m-148.793 15.59c3.34-.152 7.335-.035 10.709-.025l17.306.007 9.04-.03c1.52-.006 4-.109 5.443.155l.071.284c-.163 1.068-.946 2.222-1.436 3.053-2.347 3.984-5.683 5.615-9.093 6.869-7.298 2.332-13.612 1.156-20.762 1.63.055 10.223-4.385 10.778-10.503 10.957-.892.026-1.582.061-2.368-.667-.264-1.51-.304-19.317-.063-21.758.438-.622 1.01-.475 1.656-.475m11.098-32.003c3.954-1.558 11.564-1.545 15.558-.74 4.946.251 15.427 5.01 15.856 13.874.018.374-.113.625-.284.878-1.308.672-15.715.297-17.94.278l-14.232.003c-2.457-.026-4.905.1-7.357.113-1.333.007-2.88.063-4.174-.224-.292-.559-.241-.767-.222-1.432.093-3.168 3.49-8.644 5.628-9.345 1.092-.998 4.108-2.438 5.395-2.882.603-.294 1.144-.38 1.772-.523M47.62 130.06c.357-.197.346-.16.555-.61.06-1.381-1.01-1.788-1.788-1.854-.336.216-.366.189-.56.646-.027 1.266 1.083 1.665 1.793 1.818m7.254-3.352c-.318 1.59.877 2.244 1.803 2.176.44-1.792-.799-2.332-1.803-2.176m-20.323-4.718c-.538.454-1.162.863-.904 1.878.326.408.454.376.907.475.582-.422 1.386-1.187.81-2.196-.361-.22-.429-.186-.813-.157m2.65 5.616c-.55.424-1.53 1.295-.95 2.313.354.22.49.144.872.07.673-.51.892-.642 1.193-1.615-.025-.516.04-.292-.228-.68-.411-.165-.452-.14-.888-.088m4.74-5.474c-.777 1.13-.783 3.035.654 2.73.83-1.247.609-2.758-.654-2.73m-13.025 4.417c-.593.318-1.813.97-1.507 2.144.312.33.312.302.682.367.585-.336 1.432-.887 1.506-1.904-.195-.448-.283-.538-.681-.607m19.918-4.541c-.304.502-.26.295-.338.888.226 1.191 1.424 1.47 2.167 1.448.288-.52.225-.238.237-.853-.363-1.067-1.283-1.476-2.066-1.483" fill="#ea4a1d"/>
      <path d="M32.834 119.092c3.954-1.558 11.564-1.545 15.558-.74-1.26.186-3.387.121-4.66.021l-.001.094.285.222c-.487.404-9.881.532-11.182.403" fill="#da4b1f"/>
      <path d="M25.667 122.497c1.092-.998 4.108-2.438 5.395-2.882-.984 2.09-3.709 3.016-5.395 2.882" fill="#d14217"/>
      <path d="M118.105 126.633a131 131 0 0 1 6.568-.138c.185 0 .398.204.545.354.412.913.239 6.792.317 8.505 1.477.144 6.745-.32 7.454.359.207.527.275 6.79-.053 7.005-1.151.754-6.663-.352-7.357.557-.22 1.065-.02 12.635-.072 14.542-.01.38.1 1.156.203 1.549.958 3.67 5.735 1.377 7.303 2.328l.206.333c.163 1.342.046 4.868.024 6.027-.012.464-.021.54-.091.997-.083.129-.23.424-.363.433-5.45.326-14.801 1.217-16.548-8.502-.27-1.504-.213-4.122-.221-5.745q-.032-3.857.025-7.713c.014-1.017.128-3.319-.103-4.184-.365-.49-3.518-.303-4.444-.472l-.139-.027c-.444-9.95.14-6.884 4.332-7.568.882-.144.001-6.333.462-8.216.44-.6 1.29-.426 1.952-.424m23.164.005c2.472-.184 5.003.046 7.494.019 2.118-.023 1.608.478 1.646 3.068.022 1.54-.25 3.917.056 5.275.688.991 6.266-.077 7.405.562.372.209.324 6.363-.023 7.105-.994.751-7.238-.256-7.327.737-.433 4.786-.147 10.123-.115 14.986.003.504.193 1.373.3 1.878.2.254.608.78.857.885 2.153.913 4.516.254 6.725.695.032.887-.01 2.18-.02 3.1.003 1.01.202 4.404-.626 4.432-4.189.15-9.203.617-13.026-2.059-4.124-2.823-3.632-7.146-3.724-12.713-.053-3.195.22-8.217-.182-11.384-.102-.8-4.182.529-4.147-.737.038-1.441-.21-5.793.106-6.796.693-.465 3.189-.307 4.127-.324.24-2.595.027-5.575.159-8.199.018-.359.124-.363.315-.53" fill="#ea4a1d"/>
      <path d="m142.06 147.591.157.223c.254.98.273 4.96.1 6.124-.034.23-.14.21-.344.331-.077-1.711-.37-5.185.086-6.678" fill="#da4b1f"/>
      <path d="M20.86 140.83c2.218-.149 4.695.003 6.931-.02 4.16-.042 8.367.08 12.524.033l14.345-.026c3.418-.034 7.085-.315 10.475.258 1 .169 2.36 1.634 2.39 3.22.063 3.423-2.242 4.275-4.175 4.476-1.56.14-4.326-.012-5.978-.006l-13.816.041-13.842-.027c-3.342.025-6.753.435-10.066-.277-2.03-.436-3.751-3.33-2.21-6.011.776-1.35 2.285-1.518 3.422-1.661m3.084-40.36c.476-.01.493-.035.83.306q.08.282.166.559c.137.426.232.642.542.814.287-.126.631-.818.97-1.232.37-.11.377-.15.742.034.7 1.286-1 1.618-1.124 3.206.39 1.4 9.17 9.68 10.794 11.666q-2.043.526-4.092 1.004c-2.733.956-5.353 1.855-7.909 3.567-.233.156-.43.18-.662.05-.087-.641.07-2.153.108-2.939q.18-3.876.4-7.749c.078-1.418.197-3.134.189-4.528-.012-1.923-2.25-.479-3.02-1.398-.118-.44-.143-.423-.07-.872.691-.782 1.68.264 2.285-.14-.056-.736-.5-.856-.699-1.743.138-.426.178-.336.55-.606" fill="#ea4a1d"/>
      <path d="M41.452 136.83c2.46-.004 3.983-1.389 6.429-1.59 2.268-.186 4.478 2.004 6.398 1.673 2.577-.445 5.007-2.746 7.77-1.17.832.473 3.797.892 4.091 2.102-.355 1.444-2.257.797-2.882.387-3.624-2.371-5.643-.237-9.151.594-1.754.414-4.146-1.769-5.965-1.71-3.011.007-5.05 2.825-8.205 1.14.458-.026.976.015 1.482-.013-.097-.174-.496-.2-.707-.249.193-.082.446-.078.655-.096.378-.396.466-.475.91-.672-.4-.062-.5-.059-.825-.395" fill="#d14217"/>
      <path d="M39.937 138.257c-.89-.262-1.809-1.018-2.88-1.132-2.499-.264-4.198 1.867-6.759 1.68-2.325-.17-4.012-2.122-6.396-1.586-1.655.373-3.852 2.317-5.617 1.31-.241-.138-.24-.34-.288-.622.356-1.337 2.09-1.262 3-1.686 2.314-1.064 4.485-1.427 6.805-.182 2.202 1.181 3.811.944 5.982-.16 2.902-1.475 4.89-.037 7.668.952.325.336.424.333.825.395-.444.197-.532.276-.91.672-.209.018-.462.014-.655.096.21.05.61.075.707.249-.506.028-1.024-.013-1.482.014" fill="#da4b1f"/>
  </g>
</svg>
