<svg id="svg" version="1.1" viewBox="21.2 58.6 150.5 218.7" xmlns="http://www.w3.org/2000/svg">
  <defs>
    <clipPath id="clip-1">
      <rect x="0" y="0" transform="scale(0.08539,0.12175)" width="2464" height="2464" fill="none"/>
    </clipPath>
  </defs>
  <g clip-path="url(#clip-1)" fill="none" fill-rule="nonzero" stroke="none" stroke-width="1" stroke-linecap="butt" stroke-linejoin="miter" stroke-miterlimit="10" stroke-dasharray="" stroke-dashoffset="0" font-family="none" font-weight="none" font-size="none" text-anchor="none" style="mix-blend-mode: normal"><path d="M76.97929,244.46226c-2.32026,0.36648 -5.0853,-0.42127 -7.38592,0.2289c-0.85898,0.24351 -0.58831,4.51096 -0.57592,5.62013c0.1268,11.42045 -4.0313,19.35633 -11.41406,23.49716c-2.39002,1.30885 -4.87465,2.23539 -7.40812,2.76136c-5.44007,1.13596 -11.85875,0.51136 -17.39992,0.5625c-0.61008,0.00609 -2.41137,-0.84131 -2.48506,-1.9237c-0.26922,-3.95211 -0.11467,-8.1039 -0.10895,-12.10106l0.01332,-27.14002l-0.01306,-13.9724c-0.01315,-2.64083 -0.04884,-5.29992 -0.05926,-7.93344c-0.02177,-3.60998 2.26724,-4.90666 4.45345,-4.9517c2.17144,-0.04383 4.34569,-0.01339 6.51917,-0.03287l20.64679,-0.03287l78.278,-0.00487l12.76255,0.03166c1.35336,-0.00852 8.67772,-0.2849 9.42911,0.37013c0.49182,1.02029 -0.21688,2.14286 -0.59257,3.10836c-7.90413,20.30114 -25.80603,27.19846 -40.833,29.98174c-4.7184,0.87419 -10.42385,1.72037 -15.1875,1.67411c-1.18686,0.21794 -2.85785,0.27029 -4.05751,0.25081c-8.13894,-0.13515 -16.46171,0.403 -24.58152,0.00609z" fill="#ea5128"/><path d="M91.99849,110.37029c8.51634,-0.31972 17.03609,0.31303 25.48327,1.89241c11.79514,2.3608 27.07571,8.26826 36.26318,19.52179c3.57765,4.30763 6.44489,9.56494 7.90925,15.96916c1.11428,4.87378 1.96472,8.75771 -2.83223,9.16802c-2.11585,0.18141 -4.22572,0.1108 -6.3484,0.10958l-11.12742,0.00974l-40.1559,0.00244l-45.52954,-0.00365l-14.27815,-0.01096c-2.19714,-0.00244 -10.98731,1.27476 -10.90978,-3.55763c0.09239,-5.75649 3.21348,-13.95414 6.09199,-18.04627c13.64792,-19.40455 36.991,-24.00767 55.43373,-25.05463zM54.69498,143.80398c1.60712,-0.62216 3.33285,-1.68141 4.1768,-3.83766c1.21785,-3.10958 -0.6462,-3.7914 -2.39429,-3.54667c-1.67458,0.67451 -3.22979,1.68263 -4.16612,3.92898c-1.21879,2.9233 0.7116,3.67086 2.38362,3.45536zM75.1143,122.80519c-3.87581,0.80601 -7.44339,7.472 -2.1699,7.29424c1.19727,-0.3543 2.02372,-0.73295 2.97585,-1.86648c1.95746,-2.33157 2.57428,-5.49229 -0.80595,-5.42776zM113.44816,146.91234c4.04385,-1.56209 -0.72151,-7.64976 -4.32562,-7.39529c-0.45425,0.17289 -1.13392,0.58442 -1.32347,1.16031c-0.72578,2.20495 1.81359,4.74107 2.99532,5.48742c1.00499,0.63433 1.70344,0.75 2.65378,0.74756zM116.65096,122.95252c-0.84532,0.52597 -1.65135,1.61688 -1.04853,2.99513c1.22955,2.81372 3.70658,4.42573 6.00515,4.08726c3.57765,-2.16599 -1.51047,-7.75081 -4.95662,-7.08239zM82.78584,139.50974c-3.9238,1.05438 -7.07922,7.90422 -2.05787,7.45739c1.63778,-0.53571 3.14457,-1.5694 4.0786,-3.67817c1.20556,-2.71997 -0.12876,-3.93872 -2.02073,-3.77922zM96.1653,122.94765c-1.92373,0.88636 -2.78442,3.47484 -2.06803,6.16924c0.27409,1.05682 0.83934,1.90666 1.56426,2.35349c0.4662,0.29221 0.91362,0.28977 1.41569,0.24959c3.48629,-1.81169 2.63499,-8.77963 -0.91192,-8.77232zM135.4793,136.43669c-0.55757,0.19846 -1.18686,0.46875 -1.47375,1.20414c-0.78298,2.01136 1.37812,4.60227 2.41897,5.32427c1.13477,0.78774 1.83066,0.92045 2.98678,0.87906c0.87349,-0.36404 1.9058,-1.18953 1.5173,-2.6737c-0.853,-3.25325 -3.23013,-4.78612 -5.4493,-4.73377z" fill="#ea5128"/><path d="M30.98013,178.60714c2.13762,-0.23133 5.68581,-0.05722 7.89303,-0.04627l13.336,-0.00365l43.47542,0.00122l44.41236,-0.01948l13.9016,-0.02313c2.56156,-0.00365 4.93955,-0.05844 7.66419,0.10227c5.86171,0.347 12.72072,8.0418 8.88264,16.94562c-1.74186,4.04099 -5.37501,5.83685 -8.61795,6.5905c-2.0928,0.25325 -4.75084,0.16315 -6.88377,0.16558l-12.21694,-0.02435h-41.82433l-43.59403,0.00244l-15.28817,0.00731c-3.53914,0.02679 -7.15922,0.11567 -10.68069,-0.11688c-4.77398,-0.3336 -11.29265,-5.48133 -10.07701,-13.528c0.94795,-6.27516 5.61281,-9.14732 9.61764,-10.05317z" fill="#ea5128"/><path d="M43.01212,58.62955c0.1718,-0.01753 0.6421,-0.07634 0.78478,0.0291c1.33193,0.98486 1.68696,4.07411 2.36193,5.85463c0.17222,0.45414 0.25667,0.65418 0.56448,0.80515c1.13614,-0.64274 1.73384,-6.08231 3.9063,-5.0877c0.44324,0.24619 3.06815,1.80511 2.4118,2.78511c-1.75177,2.61526 -4.14649,3.66989 -4.81198,7.45288c0.73978,1.32528 6.17721,6.72906 7.4912,8.09647l12.48078,12.86542c3.40944,3.5267 6.76756,7.20037 10.2407,10.61043c0.56901,0.55873 2.05104,1.80925 1.95934,2.88446c-0.47637,0.62192 -1.51422,0.50357 -2.15564,0.58442c-4.03284,0.50844 -7.89644,1.61469 -11.85849,2.75162c-8.10111,2.27362 -15.83797,6.04578 -23.21663,11.18024c-0.26768,0.18628 -0.409,-0.00877 -0.61699,-0.19627c-0.32165,-0.82926 0.48209,-11.07005 0.58054,-12.76437l2.12063,-33.32593c0.35281,-5.7554 -7.78578,-1.55783 -9.29258,-3.95211c-0.20655,-0.84692 -0.05362,-2.30442 0.17367,-2.98758c0.84352,-2.53551 6.33406,1.1849 7.35945,0.64639c-0.04935,-1.50049 -3.00702,-4.25089 -3.4266,-5.67346c-0.53127,-1.80134 2.1816,-2.33973 2.94332,-2.55889z" fill="#ea5128"/><path d="M43.3745,161.93182c3.05876,-0.15706 4.96883,0.14976 7.96193,1.41599c3.53077,1.49513 6.70745,3.76705 10.45356,3.76218c4.0985,-0.00609 7.49752,-2.24026 11.29999,-3.94359c1.94943,-0.80966 3.88136,-1.06169 5.88638,-1.28206c6.39187,-0.7013 11.48007,5.08198 17.75589,5.21347c4.05495,0.08523 7.49086,-2.41071 11.27429,-3.94115c1.49168,-0.59294 3.02008,-0.97646 4.5647,-1.1457c2.76393,-0.28003 5.54066,0.15463 8.197,1.28328c3.54606,1.50122 6.69421,3.75974 10.50582,3.84253c4.14717,0.0901 7.32094,-2.23539 11.09242,-3.81331c1.88019,-0.778 3.81673,-1.24432 5.7712,-1.3892c1.7948,-0.12054 3.02094,-0.02435 4.77646,0.40909c3.16609,0.78287 5.96417,2.63231 9.03719,3.85958c1.51132,0.59294 3.11401,0.34213 4.63045,0.8961c0.75139,0.27394 2.06206,1.20657 1.96216,2.56778c-0.23396,3.2155 -3.1567,3.41518 -4.88917,3.10836c-3.54093,-0.62581 -6.84108,-2.82102 -10.26759,-4.14692c-1.33201,-0.51745 -2.33529,-0.72687 -3.68523,-0.85227c-4.47078,-0.24716 -8.01086,2.54221 -12.12558,4.22727c-3.25148,1.33076 -8.18248,1.34416 -11.43481,0.08644c-3.99518,-1.54627 -7.00331,-3.88028 -11.24782,-4.17857c-4.62362,-0.32508 -7.74787,2.31575 -11.97701,3.98498c-1.80163,0.70739 -3.65791,1.08726 -5.52614,1.12744c-2.26613,0.07062 -4.52628,-0.33847 -6.70788,-1.2151c-3.37272,-1.37581 -6.87489,-3.79383 -10.44827,-4.05682c-5.66942,-0.41883 -10.68146,4.77638 -16.29409,5.15016c-2.3282,0.15584 -5.10246,0.05722 -7.34716,-0.80479c-4.62046,-1.77516 -7.57428,-4.35633 -12.53073,-4.20292c-5.00427,0.15463 -8.48978,3.778 -13.39176,4.68263c-1.71462,0.35065 -3.89827,0.85227 -5.40763,-0.67208c-0.83473,-0.84253 -0.89048,-2.4655 -0.20928,-3.49554c0.38569,-0.5832 0.95435,-1.02394 1.50176,-1.18344c1.53531,-0.45901 3.20298,-0.37135 4.72104,-0.94724c4.26995,-1.61932 7.59221,-3.85227 12.09791,-4.34659z" fill="#ea5128"/></g></svg>